<?xml version="1.0" encoding="UTF-8" standalone="no"?>
<svg
   id="Icon"
   viewBox="0 0 64 64"
   version="1.1"
   sodipodi:docname="8610090_essentials_folder_icon.svg"
   inkscape:version="1.4.2 (f4327f4, 2025-05-13)"
   xmlns:inkscape="http://www.inkscape.org/namespaces/inkscape"
   xmlns:sodipodi="http://sodipodi.sourceforge.net/DTD/sodipodi-0.dtd"
   xmlns:xlink="http://www.w3.org/1999/xlink"
   xmlns="http://www.w3.org/2000/svg"
   xmlns:svg="http://www.w3.org/2000/svg">
  <sodipodi:namedview
     id="namedview8"
     pagecolor="#ffffff"
     bordercolor="#000000"
     borderopacity="0.25"
     inkscape:showpageshadow="2"
     inkscape:pageopacity="0.0"
     inkscape:pagecheckerboard="0"
     inkscape:deskcolor="#d1d1d1"
     showguides="false"
     inkscape:zoom="12.609375"
     inkscape:cx="24.505576"
     inkscape:cy="31.60347"
     inkscape:window-width="1920"
     inkscape:window-height="1009"
     inkscape:window-x="-8"
     inkscape:window-y="-8"
     inkscape:window-maximized="1"
     inkscape:current-layer="Icon" />
  <defs
     id="defs6">
    <style
       id="style1">.cls-1{fill:url(#linear-gradient);}.cls-2{fill:url(#linear-gradient-2);}.cls-3{fill:url(#linear-gradient-3);}</style>
    <linearGradient
       gradientUnits="userSpaceOnUse"
       id="linear-gradient"
       x1="32"
       x2="40.187366"
       y1="10.446"
       y2="58.230167">
      <stop
         offset="0"
         stop-color="#fcb64d"
         id="stop1" />
      <stop
         offset="1"
         stop-color="#f78c1e"
         id="stop2" />
    </linearGradient>
    <linearGradient
       gradientUnits="userSpaceOnUse"
       id="linear-gradient-2"
       x1="32"
       x2="32"
       y1="25.177999"
       y2="58.687"
       xlink:href="#linear-gradient-3">
      <stop
         offset="0"
         stop-color="#fecc81"
         id="stop3" />
      <stop
         offset="1"
         stop-color="#faa629"
         id="stop4" />
    </linearGradient>
    <linearGradient
       gradientUnits="userSpaceOnUse"
       id="linear-gradient-3"
       x1="40.505"
       x2="40.505"
       y1="10.327"
       y2="24.834">
      <stop
         offset="0"
         stop-color="#faa629"
         id="stop5" />
      <stop
         offset="1"
         stop-color="#f47c20"
         id="stop6" />
    </linearGradient>
  </defs>
  <path
     id="path6"
     class="cls-1"
     d="M 7 9.9726562 A 2.006 2.006 0 0 0 5 11.972656 L 5 27.181641 L 5 52.027344 A 2 2 0 0 0 7 54.027344 L 57 54.027344 A 2 2 0 0 0 59 52.027344 L 59 27.181641 L 59 21.992188 A 2 2 0 0 0 57 19.992188 L 28.619141 19.992188 L 24.009766 12.292969 L 22.619141 9.9726562 L 7 9.9726562 z "
     style="fill:url(#linear-gradient)" />
  <path
     class="cls-3"
     d="M57,14.292v5.7H28.62l-4.61-7.7H55A2.006,2.006,0,0,1,57,14.292Z"
     id="path8" />
</svg>
