<?xml version="1.0" encoding="UTF-8" standalone="no"?>
<svg
   height="10.4"
   viewBox="0 -960 226 415.99998"
   width="5.6500001"
   fill="#e3e3e3"
   version="1.1"
   id="svg1"
   sodipodi:docname="path_separator.svg"
   inkscape:version="1.4.2 (f4327f4, 2025-05-13)"
   xmlns:inkscape="http://www.inkscape.org/namespaces/inkscape"
   xmlns:sodipodi="http://sodipodi.sourceforge.net/DTD/sodipodi-0.dtd"
   xmlns="http://www.w3.org/2000/svg"
   xmlns:svg="http://www.w3.org/2000/svg">
  <defs
     id="defs1" />
  <sodipodi:namedview
     id="namedview1"
     pagecolor="#ffffff"
     bordercolor="#000000"
     borderopacity="0.25"
     inkscape:showpageshadow="2"
     inkscape:pageopacity="0.0"
     inkscape:pagecheckerboard="0"
     inkscape:deskcolor="#d1d1d1"
     inkscape:zoom="128"
     inkscape:cx="1.5078125"
     inkscape:cy="5.8789062"
     inkscape:window-width="1920"
     inkscape:window-height="1009"
     inkscape:window-x="-8"
     inkscape:window-y="-8"
     inkscape:window-maximized="1"
     inkscape:current-layer="svg1" />
  <path
     id="path1-8"
     style="fill:#000000"
     d="m 24.296875,-960.07812 c -6.88,0 -12.598959,2.26353 -17.2656251,6.79687 C 2.3645832,-948.74792 0,-943.02709 0,-936.09375 v 368.12499 c 0,6.93334 2.3645832,12.65417 7.0312499,17.1875 4.6666661,4.53334 10.3856251,6.79688 17.2656251,6.79688 2.953333,0 5.847083,-0.69792 8.59375,-2.03125 2.753333,-1.33333 5.382083,-3.27271 7.968749,-5.85938 L 216.17187,-727.1875 c 3.2,-3.2 5.67709,-7.03292 7.34375,-11.40625 4.19625,-11.02772 2.38472,-20.60797 0,-26.875 -1.66666,-4.37333 -4.14375,-8.20625 -7.34375,-11.40625 L 40.859374,-952.1875 c -2.586666,-2.58667 -5.215416,-4.52605 -7.968749,-5.85938 -2.746667,-1.33333 -5.640417,-2.03124 -8.59375,-2.03124 z"
     sodipodi:nodetypes="scssssccsccsccs" />
</svg>
